# MagicaVoxel @ Ephtracy

# group
o 

# material
mtllib chr_swrd.mtl
usemtl palette

# normals
vn -1 0 0
vn 1 0 0
vn 0 0 1
vn 0 0 -1
vn 0 -1 0
vn 0 1 0

# texcoords
vt 0.0214844 0.5
vt 0.373047 0.5
vt 0.841797 0.5
vt 0.958984 0.5
vt 0.966797 0.5
vt 0.970703 0.5
vt 0.978516 0.5
vt 0.986328 0.5

# verts
v -0.7 1 -0.4
v -0.7 1 -0.6
v -0.7 1.4 -0.4
v -0.7 1.4 -0.6
v -0.7 1.6 -0.4
v -0.7 1.6 -0.6
v -0.7 2 -0.4
v -0.7 2 -0.6
v -0.5 1.6 0
v -0.5 1.6 -0.4
v -0.5 1.8 0
v -0.5 1.8 -0.4
v -0.3 0.7 0.1
v -0.3 0.7 -0.1
v -0.3 0.9 0.1
v -0.3 0.9 -0.1
v -0.3 1.1 0.2
v -0.3 1.1 0.1
v -0.3 1.1 -0.1
v -0.3 1.1 -0.2
v -0.3 1.2 0
v -0.3 1.2 -0.2
v -0.3 1.4 0
v -0.3 1.4 -0.2
v -0.3 1.6 0
v -0.3 1.6 -0.2
v -0.3 1.8 0
v -0.3 1.8 -0.2
v -0.3 1.9 0.2
v -0.3 1.9 -0.2
v -0.2 1.9 0.2
v -0.2 1.9 0
v -0.2 1.9 -0.2
v -0.2 2 0
v -0.2 2 -0.2
v -0.2 2.1 0.2
v -0.2 2.1 0
v -0.2 2.2 0
v -0.2 2.2 -0.2
v -0.2 2.3 0.3
v -0.2 2.3 0.2
v -0.2 2.3 -0.1
v -0.2 2.3 -0.2
v -0.2 2.5 0.3
v -0.2 2.5 -0.1
v 0.1 0.7 0.1
v 0.1 0.7 -0.1
v 0.1 0.9 0.1
v 0.1 0.9 -0.1
v 0.1 1.1 0.1
v 0.1 1.1 -0.1
v 0.1 1.6 -0.4
v 0.1 1.6 -0.6
v 0.1 1.8 -0.4
v 0.1 1.8 -0.6
v 0.3 1.4 -0.4
v 0.3 1.4 -0.6
v 0.3 1.6 -0.2
v 0.3 1.6 -0.4
v 0.3 1.6 -0.6
v 0.3 1.8 -0.2
v 0.3 1.8 -0.4
v 0.3 1.8 -0.6
v 0.3 2.4 -0.4
v 0.3 2.4 -0.6
v -0.3 1.6 -0.2
v -0.3 1.6 -0.4
v -0.3 1.8 -0.2
v -0.3 1.8 -0.4
v -0.1 0.7 0.1
v -0.1 0.7 -0.1
v -0.1 0.9 0.1
v -0.1 0.9 -0.1
v -0.1 1 -0.4
v -0.1 1 -0.6
v -0.1 1.1 0.1
v -0.1 1.1 -0.1
v -0.1 1.4 -0.4
v -0.1 1.4 -0.6
v -0.1 1.6 -0.4
v -0.1 1.6 -0.6
v -0.1 2 -0.4
v -0.1 2 -0.6
v 0.2 1.9 0.2
v 0.2 1.9 0
v 0.2 1.9 -0.2
v 0.2 2 0
v 0.2 2 -0.2
v 0.2 2.1 0.2
v 0.2 2.1 0
v 0.2 2.2 0
v 0.2 2.2 -0.2
v 0.2 2.3 0.3
v 0.2 2.3 0.2
v 0.2 2.3 -0.1
v 0.2 2.3 -0.2
v 0.2 2.5 0.3
v 0.2 2.5 -0.1
v 0.3 0.7 0.1
v 0.3 0.7 -0.1
v 0.3 0.9 0.1
v 0.3 0.9 -0.1
v 0.3 1.1 0.2
v 0.3 1.1 0.1
v 0.3 1.1 -0.1
v 0.3 1.1 -0.2
v 0.3 1.2 0
v 0.3 1.2 -0.2
v 0.3 1.4 0
v 0.3 1.4 -0.2
v 0.3 1.6 0
v 0.3 1.6 -0.2
v 0.3 1.8 0
v 0.3 1.8 -0.2
v 0.3 1.9 0.2
v 0.3 1.9 -0.2
v 0.5 1.4 -0.4
v 0.5 1.4 -0.6
v 0.5 1.6 0
v 0.5 1.6 -0.4
v 0.5 1.6 -0.6
v 0.5 1.8 0
v 0.5 1.8 -0.4
v 0.5 1.8 -0.6
v 0.5 2.4 -0.4
v 0.5 2.4 -0.6
v 0.7 1.6 -0.4
v 0.7 1.6 -0.6
v 0.7 1.8 -0.4
v 0.7 1.8 -0.6
v -0.2 2.3 0.3
v -0.2 2.5 0.3
v 0.2 2.3 0.3
v 0.2 2.5 0.3
v -0.3 1.1 0.2
v -0.3 1.9 0.2
v -0.2 1.9 0.2
v -0.2 2.1 0.2
v -0.2 2.3 0.2
v 0.2 1.9 0.2
v 0.2 2.1 0.2
v 0.2 2.3 0.2
v 0.3 1.1 0.2
v 0.3 1.9 0.2
v -0.3 0.7 0.1
v -0.3 0.9 0.1
v -0.3 1.1 0.1
v -0.1 0.7 0.1
v -0.1 0.9 0.1
v -0.1 1.1 0.1
v 0.1 0.7 0.1
v 0.1 0.9 0.1
v 0.1 1.1 0.1
v 0.3 0.7 0.1
v 0.3 0.9 0.1
v 0.3 1.1 0.1
v -0.5 1.6 0
v -0.5 1.8 0
v -0.3 1.6 0
v -0.3 1.8 0
v 0.3 1.6 0
v 0.3 1.8 0
v 0.5 1.6 0
v 0.5 1.8 0
v -0.7 1 -0.4
v -0.7 1.4 -0.4
v -0.7 1.6 -0.4
v -0.7 2 -0.4
v -0.5 1 -0.4
v -0.5 1.4 -0.4
v -0.5 1.6 -0.4
v -0.5 1.8 -0.4
v -0.5 2 -0.4
v -0.3 1 -0.4
v -0.3 1.4 -0.4
v -0.3 1.6 -0.4
v -0.3 1.8 -0.4
v -0.3 2 -0.4
v -0.1 1 -0.4
v -0.1 1.4 -0.4
v -0.1 1.6 -0.4
v -0.1 2 -0.4
v 0.1 1.6 -0.4
v 0.1 1.8 -0.4
v 0.3 1.4 -0.4
v 0.3 1.6 -0.4
v 0.3 1.8 -0.4
v 0.3 2.4 -0.4
v 0.5 1.4 -0.4
v 0.5 1.6 -0.4
v 0.5 1.8 -0.4
v 0.5 2.4 -0.4
v 0.7 1.6 -0.4
v 0.7 1.8 -0.4
v -0.3 0.7 -0.1
v -0.3 0.9 -0.1
v -0.3 1.1 -0.1
v -0.2 2.3 -0.1
v -0.2 2.5 -0.1
v -0.1 0.7 -0.1
v -0.1 0.9 -0.1
v -0.1 1.1 -0.1
v 0.1 0.7 -0.1
v 0.1 0.9 -0.1
v 0.1 1.1 -0.1
v 0.2 2.3 -0.1
v 0.2 2.5 -0.1
v 0.3 0.7 -0.1
v 0.3 0.9 -0.1
v 0.3 1.1 -0.1
v -0.3 1.1 -0.2
v -0.3 1.2 -0.2
v -0.3 1.4 -0.2
v -0.3 1.6 -0.2
v -0.3 1.8 -0.2
v -0.3 1.9 -0.2
v -0.2 1.9 -0.2
v -0.2 2 -0.2
v -0.2 2.2 -0.2
v -0.2 2.3 -0.2
v -0.1 1.4 -0.2
v -0.1 1.5 -0.2
v -0.1 1.7 -0.2
v -0.1 1.8 -0.2
v 0.1 1.4 -0.2
v 0.1 1.5 -0.2
v 0.1 1.7 -0.2
v 0.1 1.8 -0.2
v 0.2 1.9 -0.2
v 0.2 2 -0.2
v 0.2 2.2 -0.2
v 0.2 2.3 -0.2
v 0.3 1.1 -0.2
v 0.3 1.2 -0.2
v 0.3 1.4 -0.2
v 0.3 1.6 -0.2
v 0.3 1.8 -0.2
v 0.3 1.9 -0.2
v -0.7 1 -0.6
v -0.7 1.4 -0.6
v -0.7 1.6 -0.6
v -0.7 2 -0.6
v -0.5 1 -0.6
v -0.5 1.4 -0.6
v -0.5 1.6 -0.6
v -0.5 2 -0.6
v -0.3 1 -0.6
v -0.3 1.4 -0.6
v -0.3 1.6 -0.6
v -0.3 2 -0.6
v -0.1 1 -0.6
v -0.1 1.4 -0.6
v -0.1 1.6 -0.6
v -0.1 2 -0.6
v 0.1 1.6 -0.6
v 0.1 1.8 -0.6
v 0.3 1.4 -0.6
v 0.3 1.6 -0.6
v 0.3 1.8 -0.6
v 0.3 2.4 -0.6
v 0.5 1.4 -0.6
v 0.5 1.6 -0.6
v 0.5 1.8 -0.6
v 0.5 2.4 -0.6
v 0.7 1.6 -0.6
v 0.7 1.8 -0.6
v -0.3 0.7 0.1
v -0.1 0.7 0.1
v 0.1 0.7 0.1
v 0.3 0.7 0.1
v -0.3 0.7 -0.1
v -0.1 0.7 -0.1
v 0.1 0.7 -0.1
v 0.3 0.7 -0.1
v -0.7 1 -0.4
v -0.5 1 -0.4
v -0.3 1 -0.4
v -0.1 1 -0.4
v -0.7 1 -0.6
v -0.5 1 -0.6
v -0.3 1 -0.6
v -0.1 1 -0.6
v -0.3 1.1 0.2
v 0.3 1.1 0.2
v -0.3 1.1 0.1
v -0.1 1.1 0.1
v 0.1 1.1 0.1
v 0.3 1.1 0.1
v -0.3 1.1 -0.1
v -0.1 1.1 -0.1
v 0.1 1.1 -0.1
v 0.3 1.1 -0.1
v -0.3 1.1 -0.2
v 0.3 1.1 -0.2
v 0.3 1.4 -0.4
v 0.5 1.4 -0.4
v 0.3 1.4 -0.6
v 0.5 1.4 -0.6
v -0.5 1.6 0
v -0.3 1.6 0
v 0.3 1.6 0
v 0.5 1.6 0
v -0.3 1.6 -0.2
v 0.3 1.6 -0.2
v -0.5 1.6 -0.4
v -0.3 1.6 -0.4
v 0.1 1.6 -0.4
v 0.3 1.6 -0.4
v 0.5 1.6 -0.4
v 0.7 1.6 -0.4
v 0.1 1.6 -0.6
v 0.3 1.6 -0.6
v 0.5 1.6 -0.6
v 0.7 1.6 -0.6
v -0.2 2.3 0.3
v 0.2 2.3 0.3
v -0.2 2.3 0.2
v 0.2 2.3 0.2
v -0.5 1.8 0
v -0.3 1.8 0
v 0.3 1.8 0
v 0.5 1.8 0
v -0.3 1.8 -0.2
v 0.3 1.8 -0.2
v -0.5 1.8 -0.4
v -0.3 1.8 -0.4
v 0.1 1.8 -0.4
v 0.3 1.8 -0.4
v 0.5 1.8 -0.4
v 0.7 1.8 -0.4
v 0.1 1.8 -0.6
v 0.3 1.8 -0.6
v 0.5 1.8 -0.6
v 0.7 1.8 -0.6
v -0.3 1.9 0.2
v -0.2 1.9 0.2
v 0.2 1.9 0.2
v 0.3 1.9 0.2
v -0.2 1.9 0
v 0.2 1.9 0
v -0.3 1.9 -0.2
v -0.2 1.9 -0.2
v 0.2 1.9 -0.2
v 0.3 1.9 -0.2
v -0.7 2 -0.4
v -0.5 2 -0.4
v -0.3 2 -0.4
v -0.1 2 -0.4
v -0.7 2 -0.6
v -0.5 2 -0.6
v -0.3 2 -0.6
v -0.1 2 -0.6
v -0.2 2.3 -0.1
v 0.2 2.3 -0.1
v -0.2 2.3 -0.2
v 0.2 2.3 -0.2
v 0.3 2.4 -0.4
v 0.5 2.4 -0.4
v 0.3 2.4 -0.6
v 0.5 2.4 -0.6
v -0.2 2.5 0.3
v 0.2 2.5 0.3
v -0.2 2.5 -0.1
v 0.2 2.5 -0.1

# faces
f 3/4/1 2/4/1 1/4/1
f 4/4/1 2/4/1 3/4/1
f 5/1/1 4/1/1 3/1/1
f 6/1/1 4/1/1 5/1/1
f 7/4/1 6/4/1 5/4/1
f 8/4/1 6/4/1 7/4/1
f 11/6/1 10/6/1 9/6/1
f 12/6/1 10/6/1 11/6/1
f 15/8/1 14/8/1 13/8/1
f 16/8/1 14/8/1 15/8/1
f 18/7/1 16/7/1 15/7/1
f 19/7/1 16/7/1 18/7/1
f 21/6/1 19/6/1 18/6/1
f 21/6/1 20/6/1 19/6/1
f 21/6/1 18/6/1 17/6/1
f 22/6/1 20/6/1 21/6/1
f 23/6/1 21/6/1 17/6/1
f 23/1/1 22/1/1 21/1/1
f 24/1/1 22/1/1 23/1/1
f 25/6/1 23/6/1 17/6/1
f 25/6/1 24/6/1 23/6/1
f 26/6/1 24/6/1 25/6/1
f 27/6/1 25/6/1 17/6/1
f 29/6/1 27/6/1 17/6/1
f 29/6/1 28/6/1 27/6/1
f 30/6/1 28/6/1 29/6/1
f 34/6/1 32/6/1 31/6/1
f 34/5/1 33/5/1 32/5/1
f 35/5/1 33/5/1 34/5/1
f 36/6/1 34/6/1 31/6/1
f 37/2/1 35/2/1 34/2/1
f 37/6/1 34/6/1 36/6/1
f 38/5/1 37/5/1 36/5/1
f 38/2/1 35/2/1 37/2/1
f 39/2/1 35/2/1 38/2/1
f 41/5/1 38/5/1 36/5/1
f 41/5/1 39/5/1 38/5/1
f 42/5/1 39/5/1 41/5/1
f 43/5/1 39/5/1 42/5/1
f 44/3/1 41/3/1 40/3/1
f 44/3/1 42/3/1 41/3/1
f 45/3/1 42/3/1 44/3/1
f 48/8/1 47/8/1 46/8/1
f 49/8/1 47/8/1 48/8/1
f 50/7/1 49/7/1 48/7/1
f 51/7/1 49/7/1 50/7/1
f 54/1/1 53/1/1 52/1/1
f 55/1/1 53/1/1 54/1/1
f 59/2/1 57/2/1 56/2/1
f 60/2/1 57/2/1 59/2/1
f 61/6/1 59/6/1 58/6/1
f 62/6/1 59/6/1 61/6/1
f 64/4/1 63/4/1 62/4/1
f 65/4/1 63/4/1 64/4/1
f 66/6/2 67/6/2 68/6/2
f 68/6/2 67/6/2 69/6/2
f 70/8/2 71/8/2 72/8/2
f 72/8/2 71/8/2 73/8/2
f 72/7/2 73/7/2 76/7/2
f 76/7/2 73/7/2 77/7/2
f 74/4/2 75/4/2 78/4/2
f 78/4/2 75/4/2 79/4/2
f 78/1/2 79/1/2 80/1/2
f 80/1/2 79/1/2 81/1/2
f 80/4/2 81/4/2 82/4/2
f 82/4/2 81/4/2 83/4/2
f 84/6/2 85/6/2 87/6/2
f 85/5/2 86/5/2 87/5/2
f 87/5/2 86/5/2 88/5/2
f 84/6/2 87/6/2 89/6/2
f 87/2/2 88/2/2 90/2/2
f 89/6/2 87/6/2 90/6/2
f 89/5/2 90/5/2 91/5/2
f 90/2/2 88/2/2 91/2/2
f 91/2/2 88/2/2 92/2/2
f 89/5/2 91/5/2 94/5/2
f 91/5/2 92/5/2 94/5/2
f 94/5/2 92/5/2 95/5/2
f 95/5/2 92/5/2 96/5/2
f 93/3/2 94/3/2 97/3/2
f 94/3/2 95/3/2 97/3/2
f 97/3/2 95/3/2 98/3/2
f 99/8/2 100/8/2 101/8/2
f 101/8/2 100/8/2 102/8/2
f 101/7/2 102/7/2 104/7/2
f 104/7/2 102/7/2 105/7/2
f 104/6/2 105/6/2 107/6/2
f 105/6/2 106/6/2 107/6/2
f 103/6/2 104/6/2 107/6/2
f 107/6/2 106/6/2 108/6/2
f 103/6/2 107/6/2 109/6/2
f 107/1/2 108/1/2 109/1/2
f 109/1/2 108/1/2 110/1/2
f 103/6/2 109/6/2 111/6/2
f 109/6/2 110/6/2 111/6/2
f 111/6/2 110/6/2 112/6/2
f 103/6/2 111/6/2 113/6/2
f 103/6/2 113/6/2 115/6/2
f 113/6/2 114/6/2 115/6/2
f 115/6/2 114/6/2 116/6/2
f 117/2/2 118/2/2 120/2/2
f 120/2/2 118/2/2 121/2/2
f 119/6/2 120/6/2 122/6/2
f 122/6/2 120/6/2 123/6/2
f 123/4/2 124/4/2 125/4/2
f 125/4/2 124/4/2 126/4/2
f 127/1/2 128/1/2 129/1/2
f 129/1/2 128/1/2 130/1/2
f 133/3/3 132/3/3 131/3/3
f 134/3/3 132/3/3 133/3/3
f 137/6/3 136/6/3 135/6/3
f 140/6/3 137/6/3 135/6/3
f 140/6/3 138/6/3 137/6/3
f 141/5/3 139/5/3 138/5/3
f 141/6/3 138/6/3 140/6/3
f 142/5/3 139/5/3 141/5/3
f 143/6/3 140/6/3 135/6/3
f 144/6/3 140/6/3 143/6/3
f 148/8/3 146/8/3 145/8/3
f 149/7/3 147/7/3 146/7/3
f 149/8/3 146/8/3 148/8/3
f 150/7/3 147/7/3 149/7/3
f 154/8/3 152/8/3 151/8/3
f 155/7/3 153/7/3 152/7/3
f 155/8/3 152/8/3 154/8/3
f 156/7/3 153/7/3 155/7/3
f 159/6/3 158/6/3 157/6/3
f 160/6/3 158/6/3 159/6/3
f 163/6/3 162/6/3 161/6/3
f 164/6/3 162/6/3 163/6/3
f 169/4/3 166/4/3 165/4/3
f 170/1/3 167/1/3 166/1/3
f 170/4/3 166/4/3 169/4/3
f 171/4/3 168/4/3 167/4/3
f 171/1/3 167/1/3 170/1/3
f 172/4/3 168/4/3 171/4/3
f 173/4/3 168/4/3 172/4/3
f 174/1/3 170/1/3 169/1/3
f 175/3/3 171/3/3 170/3/3
f 175/1/3 170/1/3 174/1/3
f 176/3/3 171/3/3 175/3/3
f 177/1/3 173/1/3 172/1/3
f 178/1/3 173/1/3 177/1/3
f 179/4/3 175/4/3 174/4/3
f 180/1/3 176/1/3 175/1/3
f 180/4/3 175/4/3 179/4/3
f 181/4/3 177/4/3 176/4/3
f 181/1/3 176/1/3 180/1/3
f 181/4/3 178/4/3 177/4/3
f 182/4/3 178/4/3 181/4/3
f 186/1/3 184/1/3 183/1/3
f 187/1/3 184/1/3 186/1/3
f 189/2/3 186/2/3 185/2/3
f 190/2/3 186/2/3 189/2/3
f 191/4/3 188/4/3 187/4/3
f 192/4/3 188/4/3 191/4/3
f 193/1/3 191/1/3 190/1/3
f 194/1/3 191/1/3 193/1/3
f 195/8/4 196/8/4 200/8/4
f 196/7/4 197/7/4 201/7/4
f 200/8/4 196/8/4 201/8/4
f 201/7/4 197/7/4 202/7/4
f 198/3/4 199/3/4 206/3/4
f 206/3/4 199/3/4 207/3/4
f 203/8/4 204/8/4 208/8/4
f 204/7/4 205/7/4 209/7/4
f 208/8/4 204/8/4 209/8/4
f 209/7/4 205/7/4 210/7/4
f 213/6/4 214/6/4 217/6/4
f 215/6/4 216/6/4 217/6/4
f 214/6/4 215/6/4 217/6/4
f 212/1/4 213/1/4 221/1/4
f 213/6/4 217/6/4 221/6/4
f 221/6/4 217/6/4 222/6/4
f 222/6/4 217/6/4 223/6/4
f 223/6/4 217/6/4 224/6/4
f 212/1/4 221/1/4 225/1/4
f 221/2/4 222/2/4 225/2/4
f 222/3/4 223/3/4 226/3/4
f 225/2/4 222/2/4 226/2/4
f 223/2/4 224/2/4 227/2/4
f 226/3/4 223/3/4 227/3/4
f 224/6/4 217/6/4 228/6/4
f 227/2/4 224/2/4 228/2/4
f 217/5/4 218/5/4 229/5/4
f 228/6/4 217/6/4 229/6/4
f 227/6/4 228/6/4 229/6/4
f 226/6/4 227/6/4 229/6/4
f 225/6/4 226/6/4 229/6/4
f 218/2/4 219/2/4 230/2/4
f 229/5/4 218/5/4 230/5/4
f 219/5/4 220/5/4 231/5/4
f 230/2/4 219/2/4 231/2/4
f 231/5/4 220/5/4 232/5/4
f 211/6/4 212/6/4 233/6/4
f 212/1/4 225/1/4 234/1/4
f 233/6/4 212/6/4 234/6/4
f 225/6/4 229/6/4 235/6/4
f 234/1/4 225/1/4 235/1/4
f 235/6/4 229/6/4 236/6/4
f 236/6/4 229/6/4 237/6/4
f 237/6/4 229/6/4 238/6/4
f 239/4/4 240/4/4 243/4/4
f 240/1/4 241/1/4 244/1/4
f 243/4/4 240/4/4 244/4/4
f 241/4/4 242/4/4 245/4/4
f 244/1/4 241/1/4 245/1/4
f 245/4/4 242/4/4 246/4/4
f 243/1/4 244/1/4 247/1/4
f 244/3/4 245/3/4 248/3/4
f 247/1/4 244/1/4 248/1/4
f 245/1/4 246/1/4 249/1/4
f 248/3/4 245/3/4 249/3/4
f 249/1/4 246/1/4 250/1/4
f 247/4/4 248/4/4 251/4/4
f 248/1/4 249/1/4 252/1/4
f 251/4/4 248/4/4 252/4/4
f 249/4/4 250/4/4 253/4/4
f 252/1/4 249/1/4 253/1/4
f 253/4/4 250/4/4 254/4/4
f 255/1/4 256/1/4 258/1/4
f 258/1/4 256/1/4 259/1/4
f 257/2/4 258/2/4 261/2/4
f 258/3/4 259/3/4 262/3/4
f 261/2/4 258/2/4 262/2/4
f 259/4/4 260/4/4 263/4/4
f 262/3/4 259/3/4 263/3/4
f 263/4/4 260/4/4 264/4/4
f 262/1/4 263/1/4 265/1/4
f 265/1/4 263/1/4 266/1/4
f 271/8/5 268/8/5 267/8/5
f 272/8/5 268/8/5 271/8/5
f 273/8/5 270/8/5 269/8/5
f 274/8/5 270/8/5 273/8/5
f 279/4/5 276/4/5 275/4/5
f 280/1/5 277/1/5 276/1/5
f 280/4/5 276/4/5 279/4/5
f 281/4/5 278/4/5 277/4/5
f 281/1/5 277/1/5 280/1/5
f 282/4/5 278/4/5 281/4/5
f 285/6/5 284/6/5 283/6/5
f 286/6/5 284/6/5 285/6/5
f 287/6/5 284/6/5 286/6/5
f 288/6/5 284/6/5 287/6/5
f 290/6/5 287/6/5 286/6/5
f 291/6/5 287/6/5 290/6/5
f 293/6/5 290/6/5 289/6/5
f 293/6/5 292/6/5 291/6/5
f 293/6/5 291/6/5 290/6/5
f 294/6/5 292/6/5 293/6/5
f 297/2/5 296/2/5 295/2/5
f 298/2/5 296/2/5 297/2/5
f 303/6/5 300/6/5 299/6/5
f 304/6/5 302/6/5 301/6/5
f 305/6/5 303/6/5 299/6/5
f 306/6/5 303/6/5 305/6/5
f 308/6/5 302/6/5 304/6/5
f 309/6/5 302/6/5 308/6/5
f 311/1/5 308/1/5 307/1/5
f 312/1/5 308/1/5 311/1/5
f 313/1/5 310/1/5 309/1/5
f 314/1/5 310/1/5 313/1/5
f 317/3/5 316/3/5 315/3/5
f 318/3/5 316/3/5 317/3/5
f 319/6/6 320/6/6 323/6/6
f 321/6/6 322/6/6 324/6/6
f 319/6/6 323/6/6 325/6/6
f 325/6/6 323/6/6 326/6/6
f 324/6/6 322/6/6 328/6/6
f 328/6/6 322/6/6 329/6/6
f 327/1/6 328/1/6 331/1/6
f 331/1/6 328/1/6 332/1/6
f 329/1/6 330/1/6 333/1/6
f 333/1/6 330/1/6 334/1/6
f 335/6/6 336/6/6 339/6/6
f 337/6/6 338/6/6 340/6/6
f 335/6/6 339/6/6 341/6/6
f 341/6/6 339/6/6 342/6/6
f 340/6/6 338/6/6 343/6/6
f 343/6/6 338/6/6 344/6/6
f 345/4/6 346/4/6 349/4/6
f 346/1/6 347/1/6 350/1/6
f 349/4/6 346/4/6 350/4/6
f 347/4/6 348/4/6 351/4/6
f 350/1/6 347/1/6 351/1/6
f 351/4/6 348/4/6 352/4/6
f 353/5/6 354/5/6 355/5/6
f 355/5/6 354/5/6 356/5/6
f 357/4/6 358/4/6 359/4/6
f 359/4/6 358/4/6 360/4/6
f 361/3/6 362/3/6 363/3/6
f 363/3/6 362/3/6 364/3/6
